<mxfile host="app.diagrams.net" modified="2021-03-02T10:25:29.733Z" agent="5.0 (Windows NT 10.0; Win64; x64) AppleWebKit/537.36 (KHTML, like Gecko) Chrome/88.0.4324.182 Safari/537.36 Edg/88.0.705.81" etag="WUnYkS9G_Tj1RrW4L0Bn" version="14.4.3" type="github">
  <diagram id="Vwi1EXBxK2TPIhp4Lb0i" name="Page-1">
    <mxGraphModel dx="884" dy="734" grid="1" gridSize="10" guides="1" tooltips="1" connect="1" arrows="1" fold="1" page="1" pageScale="1" pageWidth="1654" pageHeight="1169" math="0" shadow="0">
      <root>
        <mxCell id="0" />
        <mxCell id="1" parent="0" />
        <mxCell id="vF5GCOSuYG-XhWZ7ihMb-71" value="" style="endArrow=none;html=1;" edge="1" parent="1">
          <mxGeometry width="50" height="50" relative="1" as="geometry">
            <mxPoint x="1360" y="230" as="sourcePoint" />
            <mxPoint x="1420" y="230" as="targetPoint" />
          </mxGeometry>
        </mxCell>
        <mxCell id="vF5GCOSuYG-XhWZ7ihMb-72" value="" style="endArrow=none;html=1;" edge="1" parent="1">
          <mxGeometry width="50" height="50" relative="1" as="geometry">
            <mxPoint x="1345" y="240" as="sourcePoint" />
            <mxPoint x="1405" y="240" as="targetPoint" />
          </mxGeometry>
        </mxCell>
        <mxCell id="vF5GCOSuYG-XhWZ7ihMb-73" value="" style="endArrow=none;html=1;exitX=1;exitY=0.25;exitDx=0;exitDy=0;jumpStyle=arc;rounded=0;" edge="1" parent="1" source="vF5GCOSuYG-XhWZ7ihMb-109">
          <mxGeometry width="50" height="50" relative="1" as="geometry">
            <mxPoint x="860" y="340" as="sourcePoint" />
            <mxPoint x="1361.3326710668102" y="230" as="targetPoint" />
            <Array as="points">
              <mxPoint x="880" y="470" />
              <mxPoint x="880" y="230" />
            </Array>
          </mxGeometry>
        </mxCell>
        <mxCell id="vF5GCOSuYG-XhWZ7ihMb-74" value="" style="endArrow=none;html=1;exitX=0.25;exitY=0;exitDx=0;exitDy=0;rounded=0;" edge="1" parent="1" source="vF5GCOSuYG-XhWZ7ihMb-112">
          <mxGeometry width="50" height="50" relative="1" as="geometry">
            <mxPoint x="995" y="460" as="sourcePoint" />
            <mxPoint x="1345" y="240" as="targetPoint" />
            <Array as="points">
              <mxPoint x="1000" y="240" />
            </Array>
          </mxGeometry>
        </mxCell>
        <mxCell id="vF5GCOSuYG-XhWZ7ihMb-75" style="edgeStyle=orthogonalEdgeStyle;rounded=0;orthogonalLoop=1;jettySize=auto;html=1;exitX=0.5;exitY=1;exitDx=0;exitDy=0;entryX=0.5;entryY=1;entryDx=0;entryDy=0;" edge="1" parent="1" source="vF5GCOSuYG-XhWZ7ihMb-123" target="vF5GCOSuYG-XhWZ7ihMb-109">
          <mxGeometry relative="1" as="geometry">
            <Array as="points">
              <mxPoint x="1480" y="700" />
              <mxPoint x="820" y="700" />
            </Array>
          </mxGeometry>
        </mxCell>
        <mxCell id="vF5GCOSuYG-XhWZ7ihMb-76" value="LO" style="edgeLabel;html=1;align=center;verticalAlign=middle;resizable=0;points=[];" vertex="1" connectable="0" parent="vF5GCOSuYG-XhWZ7ihMb-75">
          <mxGeometry x="-0.9669" y="-1" relative="1" as="geometry">
            <mxPoint as="offset" />
          </mxGeometry>
        </mxCell>
        <mxCell id="vF5GCOSuYG-XhWZ7ihMb-77" style="edgeStyle=orthogonalEdgeStyle;rounded=0;orthogonalLoop=1;jettySize=auto;html=1;exitX=0.25;exitY=1;exitDx=0;exitDy=0;entryX=0.75;entryY=1;entryDx=0;entryDy=0;" edge="1" parent="1" source="vF5GCOSuYG-XhWZ7ihMb-123" target="vF5GCOSuYG-XhWZ7ihMb-109">
          <mxGeometry relative="1" as="geometry">
            <Array as="points">
              <mxPoint x="1465" y="690" />
              <mxPoint x="840" y="690" />
            </Array>
          </mxGeometry>
        </mxCell>
        <mxCell id="vF5GCOSuYG-XhWZ7ihMb-78" value="HI" style="edgeLabel;html=1;align=center;verticalAlign=middle;resizable=0;points=[];" vertex="1" connectable="0" parent="vF5GCOSuYG-XhWZ7ihMb-77">
          <mxGeometry x="-0.9623" relative="1" as="geometry">
            <mxPoint as="offset" />
          </mxGeometry>
        </mxCell>
        <mxCell id="vF5GCOSuYG-XhWZ7ihMb-79" style="edgeStyle=orthogonalEdgeStyle;rounded=0;orthogonalLoop=1;jettySize=auto;html=1;entryX=0.75;entryY=1;entryDx=0;entryDy=0;" edge="1" parent="1" source="vF5GCOSuYG-XhWZ7ihMb-129" target="vF5GCOSuYG-XhWZ7ihMb-86">
          <mxGeometry relative="1" as="geometry">
            <Array as="points">
              <mxPoint x="540" y="680" />
              <mxPoint x="360" y="680" />
            </Array>
            <mxPoint x="520" y="670" as="sourcePoint" />
          </mxGeometry>
        </mxCell>
        <mxCell id="vF5GCOSuYG-XhWZ7ihMb-80" style="edgeStyle=orthogonalEdgeStyle;rounded=0;orthogonalLoop=1;jettySize=auto;html=1;entryX=1;entryY=0.75;entryDx=0;entryDy=0;jumpStyle=arc;" edge="1" parent="1" source="vF5GCOSuYG-XhWZ7ihMb-129" target="vF5GCOSuYG-XhWZ7ihMb-116">
          <mxGeometry relative="1" as="geometry">
            <Array as="points">
              <mxPoint x="620" y="710" />
              <mxPoint x="1290" y="710" />
              <mxPoint x="1290" y="490" />
            </Array>
            <mxPoint x="640" y="690" as="sourcePoint" />
          </mxGeometry>
        </mxCell>
        <mxCell id="vF5GCOSuYG-XhWZ7ihMb-81" style="edgeStyle=orthogonalEdgeStyle;rounded=0;orthogonalLoop=1;jettySize=auto;html=1;jumpStyle=arc;" edge="1" parent="1" target="vF5GCOSuYG-XhWZ7ihMb-123">
          <mxGeometry relative="1" as="geometry">
            <Array as="points">
              <mxPoint x="1480" y="230" />
            </Array>
            <mxPoint x="1420" y="230" as="sourcePoint" />
          </mxGeometry>
        </mxCell>
        <mxCell id="vF5GCOSuYG-XhWZ7ihMb-82" style="edgeStyle=orthogonalEdgeStyle;rounded=0;orthogonalLoop=1;jettySize=auto;html=1;entryX=0.25;entryY=0;entryDx=0;entryDy=0;endFill=1;snapToPoint=0;" edge="1" parent="1" target="vF5GCOSuYG-XhWZ7ihMb-123">
          <mxGeometry relative="1" as="geometry">
            <Array as="points">
              <mxPoint x="1465" y="240" />
            </Array>
            <mxPoint x="1405" y="240" as="sourcePoint" />
          </mxGeometry>
        </mxCell>
        <mxCell id="vF5GCOSuYG-XhWZ7ihMb-83" value="PipelineController" style="rounded=0;whiteSpace=wrap;html=1;direction=south;" vertex="1" parent="1">
          <mxGeometry x="300" y="740" width="1210" height="40" as="geometry" />
        </mxCell>
        <mxCell id="vF5GCOSuYG-XhWZ7ihMb-84" style="edgeStyle=orthogonalEdgeStyle;rounded=0;orthogonalLoop=1;jettySize=auto;html=1;exitX=1;exitY=0.5;exitDx=0;exitDy=0;fillColor=#f8cecc;strokeColor=#b85450;" edge="1" parent="1" source="vF5GCOSuYG-XhWZ7ihMb-86" target="vF5GCOSuYG-XhWZ7ihMb-89">
          <mxGeometry relative="1" as="geometry" />
        </mxCell>
        <mxCell id="vF5GCOSuYG-XhWZ7ihMb-85" style="edgeStyle=orthogonalEdgeStyle;rounded=0;orthogonalLoop=1;jettySize=auto;html=1;entryX=0.25;entryY=1;entryDx=0;entryDy=0;" edge="1" parent="1" target="vF5GCOSuYG-XhWZ7ihMb-86">
          <mxGeometry relative="1" as="geometry">
            <mxPoint x="320" y="739.9999999999998" as="sourcePoint" />
          </mxGeometry>
        </mxCell>
        <mxCell id="vF5GCOSuYG-XhWZ7ihMb-86" value="PC" style="rounded=0;whiteSpace=wrap;html=1;fillColor=#dae8fc;strokeColor=#6c8ebf;" vertex="1" parent="1">
          <mxGeometry x="300" y="460" width="80" height="40" as="geometry" />
        </mxCell>
        <mxCell id="vF5GCOSuYG-XhWZ7ihMb-87" style="edgeStyle=orthogonalEdgeStyle;rounded=0;orthogonalLoop=1;jettySize=auto;html=1;exitX=1;exitY=0.5;exitDx=0;exitDy=0;entryX=0;entryY=0.5;entryDx=0;entryDy=0;fillColor=#f8cecc;strokeColor=#b85450;" edge="1" parent="1" source="vF5GCOSuYG-XhWZ7ihMb-89">
          <mxGeometry relative="1" as="geometry">
            <mxPoint x="500" y="479.9999999999998" as="targetPoint" />
          </mxGeometry>
        </mxCell>
        <mxCell id="vF5GCOSuYG-XhWZ7ihMb-88" style="edgeStyle=orthogonalEdgeStyle;rounded=0;orthogonalLoop=1;jettySize=auto;html=1;entryX=0.5;entryY=1;entryDx=0;entryDy=0;jumpStyle=arc;" edge="1" parent="1" target="vF5GCOSuYG-XhWZ7ihMb-89">
          <mxGeometry relative="1" as="geometry">
            <mxPoint x="440" y="739.9999999999998" as="sourcePoint" />
          </mxGeometry>
        </mxCell>
        <mxCell id="vF5GCOSuYG-XhWZ7ihMb-89" value="IF&lt;br&gt;|&lt;br&gt;ID" style="rounded=0;whiteSpace=wrap;html=1;fillColor=#dae8fc;strokeColor=#6c8ebf;" vertex="1" parent="1">
          <mxGeometry x="420" y="300" width="40" height="360" as="geometry" />
        </mxCell>
        <mxCell id="vF5GCOSuYG-XhWZ7ihMb-90" style="edgeStyle=orthogonalEdgeStyle;rounded=0;orthogonalLoop=1;jettySize=auto;html=1;exitX=1;exitY=0.25;exitDx=0;exitDy=0;entryX=0;entryY=0.5;entryDx=0;entryDy=0;" edge="1" parent="1" source="vF5GCOSuYG-XhWZ7ihMb-94" target="vF5GCOSuYG-XhWZ7ihMb-106">
          <mxGeometry relative="1" as="geometry" />
        </mxCell>
        <mxCell id="vF5GCOSuYG-XhWZ7ihMb-91" style="edgeStyle=orthogonalEdgeStyle;rounded=0;orthogonalLoop=1;jettySize=auto;html=1;exitX=1;exitY=0.5;exitDx=0;exitDy=0;entryX=-0.03;entryY=0.482;entryDx=0;entryDy=0;entryPerimeter=0;fillColor=#f8cecc;strokeColor=#b85450;" edge="1" parent="1" source="vF5GCOSuYG-XhWZ7ihMb-94" target="vF5GCOSuYG-XhWZ7ihMb-109">
          <mxGeometry relative="1" as="geometry" />
        </mxCell>
        <mxCell id="vF5GCOSuYG-XhWZ7ihMb-92" style="edgeStyle=orthogonalEdgeStyle;rounded=0;orthogonalLoop=1;jettySize=auto;html=1;entryX=0.5;entryY=1;entryDx=0;entryDy=0;jumpStyle=arc;" edge="1" parent="1" target="vF5GCOSuYG-XhWZ7ihMb-94">
          <mxGeometry relative="1" as="geometry">
            <mxPoint x="720" y="739.9999999999998" as="sourcePoint" />
          </mxGeometry>
        </mxCell>
        <mxCell id="vF5GCOSuYG-XhWZ7ihMb-93" style="edgeStyle=orthogonalEdgeStyle;rounded=0;orthogonalLoop=1;jettySize=auto;html=1;exitX=0.25;exitY=0;exitDx=0;exitDy=0;entryX=0.75;entryY=0;entryDx=0;entryDy=0;" edge="1" parent="1" source="vF5GCOSuYG-XhWZ7ihMb-94" target="vF5GCOSuYG-XhWZ7ihMb-129">
          <mxGeometry relative="1" as="geometry">
            <Array as="points">
              <mxPoint x="710" y="260" />
              <mxPoint x="620" y="260" />
            </Array>
            <mxPoint x="640" y="260" as="targetPoint" />
          </mxGeometry>
        </mxCell>
        <mxCell id="vF5GCOSuYG-XhWZ7ihMb-94" value="ID&lt;br&gt;|&lt;br&gt;EX" style="rounded=0;whiteSpace=wrap;html=1;fillColor=#dae8fc;strokeColor=#6c8ebf;" vertex="1" parent="1">
          <mxGeometry x="700" y="300" width="40" height="360" as="geometry" />
        </mxCell>
        <mxCell id="vF5GCOSuYG-XhWZ7ihMb-95" style="edgeStyle=orthogonalEdgeStyle;rounded=0;orthogonalLoop=1;jettySize=auto;html=1;exitX=1;exitY=0.5;exitDx=0;exitDy=0;entryX=0;entryY=0.5;entryDx=0;entryDy=0;fillColor=#f8cecc;strokeColor=#b85450;" edge="1" parent="1" source="vF5GCOSuYG-XhWZ7ihMb-97" target="vF5GCOSuYG-XhWZ7ihMb-112">
          <mxGeometry relative="1" as="geometry" />
        </mxCell>
        <mxCell id="vF5GCOSuYG-XhWZ7ihMb-96" style="edgeStyle=orthogonalEdgeStyle;rounded=0;orthogonalLoop=1;jettySize=auto;html=1;entryX=0.5;entryY=1;entryDx=0;entryDy=0;jumpStyle=arc;" edge="1" parent="1" target="vF5GCOSuYG-XhWZ7ihMb-97">
          <mxGeometry relative="1" as="geometry">
            <mxPoint x="920" y="739.9999999999998" as="sourcePoint" />
          </mxGeometry>
        </mxCell>
        <mxCell id="vF5GCOSuYG-XhWZ7ihMb-97" value="EX&lt;br&gt;|&lt;br&gt;MEM" style="rounded=0;whiteSpace=wrap;html=1;fillColor=#dae8fc;strokeColor=#6c8ebf;" vertex="1" parent="1">
          <mxGeometry x="900" y="300" width="40" height="360" as="geometry" />
        </mxCell>
        <mxCell id="vF5GCOSuYG-XhWZ7ihMb-98" style="edgeStyle=orthogonalEdgeStyle;rounded=0;orthogonalLoop=1;jettySize=auto;html=1;exitX=1;exitY=0.5;exitDx=0;exitDy=0;entryX=0;entryY=0.5;entryDx=0;entryDy=0;fillColor=#f8cecc;strokeColor=#b85450;" edge="1" parent="1" source="vF5GCOSuYG-XhWZ7ihMb-102" target="vF5GCOSuYG-XhWZ7ihMb-116">
          <mxGeometry relative="1" as="geometry" />
        </mxCell>
        <mxCell id="vF5GCOSuYG-XhWZ7ihMb-99" style="edgeStyle=orthogonalEdgeStyle;rounded=0;orthogonalLoop=1;jettySize=auto;html=1;exitX=1;exitY=0.25;exitDx=0;exitDy=0;entryX=0;entryY=0.5;entryDx=0;entryDy=0;" edge="1" parent="1" source="vF5GCOSuYG-XhWZ7ihMb-102" target="vF5GCOSuYG-XhWZ7ihMb-114">
          <mxGeometry relative="1" as="geometry" />
        </mxCell>
        <mxCell id="vF5GCOSuYG-XhWZ7ihMb-100" style="edgeStyle=orthogonalEdgeStyle;rounded=0;orthogonalLoop=1;jettySize=auto;html=1;exitX=1;exitY=0.75;exitDx=0;exitDy=0;entryX=0;entryY=0.5;entryDx=0;entryDy=0;" edge="1" parent="1" source="vF5GCOSuYG-XhWZ7ihMb-102" target="vF5GCOSuYG-XhWZ7ihMb-118">
          <mxGeometry relative="1" as="geometry" />
        </mxCell>
        <mxCell id="vF5GCOSuYG-XhWZ7ihMb-101" style="edgeStyle=orthogonalEdgeStyle;rounded=0;orthogonalLoop=1;jettySize=auto;html=1;entryX=0.5;entryY=1;entryDx=0;entryDy=0;jumpStyle=arc;" edge="1" parent="1" target="vF5GCOSuYG-XhWZ7ihMb-102">
          <mxGeometry relative="1" as="geometry">
            <mxPoint x="1120" y="739.9999999999998" as="sourcePoint" />
          </mxGeometry>
        </mxCell>
        <mxCell id="vF5GCOSuYG-XhWZ7ihMb-102" value="MEM&lt;br&gt;|&lt;br&gt;WB" style="rounded=0;whiteSpace=wrap;html=1;fillColor=#dae8fc;strokeColor=#6c8ebf;" vertex="1" parent="1">
          <mxGeometry x="1100" y="300" width="40" height="360" as="geometry" />
        </mxCell>
        <mxCell id="vF5GCOSuYG-XhWZ7ihMb-103" style="edgeStyle=orthogonalEdgeStyle;rounded=0;orthogonalLoop=1;jettySize=auto;html=1;exitX=1;exitY=0.5;exitDx=0;exitDy=0;entryX=0;entryY=0.5;entryDx=0;entryDy=0;fillColor=#f8cecc;strokeColor=#b85450;" edge="1" parent="1" target="vF5GCOSuYG-XhWZ7ihMb-94">
          <mxGeometry relative="1" as="geometry">
            <mxPoint x="660" y="479.9999999999998" as="sourcePoint" />
          </mxGeometry>
        </mxCell>
        <mxCell id="vF5GCOSuYG-XhWZ7ihMb-104" style="edgeStyle=orthogonalEdgeStyle;rounded=0;orthogonalLoop=1;jettySize=auto;html=1;exitX=0.5;exitY=1;exitDx=0;exitDy=0;" edge="1" parent="1" source="vF5GCOSuYG-XhWZ7ihMb-129">
          <mxGeometry relative="1" as="geometry">
            <mxPoint x="620" y="680" as="sourcePoint" />
            <mxPoint x="580" y="739.9999999999998" as="targetPoint" />
            <Array as="points">
              <mxPoint x="580" y="740" />
            </Array>
          </mxGeometry>
        </mxCell>
        <mxCell id="vF5GCOSuYG-XhWZ7ihMb-105" style="edgeStyle=orthogonalEdgeStyle;rounded=0;orthogonalLoop=1;jettySize=auto;html=1;exitX=0.5;exitY=1;exitDx=0;exitDy=0;entryX=0.5;entryY=0;entryDx=0;entryDy=0;" edge="1" parent="1" source="vF5GCOSuYG-XhWZ7ihMb-106" target="vF5GCOSuYG-XhWZ7ihMb-109">
          <mxGeometry relative="1" as="geometry" />
        </mxCell>
        <mxCell id="vF5GCOSuYG-XhWZ7ihMb-106" value="MULT&lt;br&gt;DIV" style="rounded=0;whiteSpace=wrap;html=1;" vertex="1" parent="1">
          <mxGeometry x="780" y="370" width="80" height="40" as="geometry" />
        </mxCell>
        <mxCell id="vF5GCOSuYG-XhWZ7ihMb-107" style="edgeStyle=orthogonalEdgeStyle;rounded=0;orthogonalLoop=1;jettySize=auto;html=1;exitX=1;exitY=0.5;exitDx=0;exitDy=0;entryX=0;entryY=0.5;entryDx=0;entryDy=0;fillColor=#f8cecc;strokeColor=#b85450;" edge="1" parent="1" source="vF5GCOSuYG-XhWZ7ihMb-109" target="vF5GCOSuYG-XhWZ7ihMb-97">
          <mxGeometry relative="1" as="geometry" />
        </mxCell>
        <mxCell id="vF5GCOSuYG-XhWZ7ihMb-108" style="edgeStyle=orthogonalEdgeStyle;rounded=0;orthogonalLoop=1;jettySize=auto;html=1;exitX=0.25;exitY=1;exitDx=0;exitDy=0;jumpStyle=arc;" edge="1" parent="1" source="vF5GCOSuYG-XhWZ7ihMb-109">
          <mxGeometry relative="1" as="geometry">
            <mxPoint x="800" y="739.9999999999998" as="targetPoint" />
          </mxGeometry>
        </mxCell>
        <mxCell id="vF5GCOSuYG-XhWZ7ihMb-109" value="ALU" style="rounded=0;whiteSpace=wrap;html=1;fillColor=#dae8fc;strokeColor=#6c8ebf;" vertex="1" parent="1">
          <mxGeometry x="780" y="460" width="80" height="40" as="geometry" />
        </mxCell>
        <mxCell id="vF5GCOSuYG-XhWZ7ihMb-110" style="edgeStyle=orthogonalEdgeStyle;rounded=0;orthogonalLoop=1;jettySize=auto;html=1;exitX=1;exitY=0.5;exitDx=0;exitDy=0;entryX=0;entryY=0.5;entryDx=0;entryDy=0;fillColor=#f8cecc;strokeColor=#b85450;" edge="1" parent="1" source="vF5GCOSuYG-XhWZ7ihMb-112" target="vF5GCOSuYG-XhWZ7ihMb-102">
          <mxGeometry relative="1" as="geometry" />
        </mxCell>
        <mxCell id="vF5GCOSuYG-XhWZ7ihMb-111" style="edgeStyle=orthogonalEdgeStyle;rounded=0;orthogonalLoop=1;jettySize=auto;html=1;exitX=0.5;exitY=1;exitDx=0;exitDy=0;jumpStyle=arc;" edge="1" parent="1" source="vF5GCOSuYG-XhWZ7ihMb-112">
          <mxGeometry relative="1" as="geometry">
            <mxPoint x="1020" y="739.9999999999998" as="targetPoint" />
          </mxGeometry>
        </mxCell>
        <mxCell id="vF5GCOSuYG-XhWZ7ihMb-112" value="MEM" style="rounded=0;whiteSpace=wrap;html=1;fillColor=#dae8fc;strokeColor=#6c8ebf;" vertex="1" parent="1">
          <mxGeometry x="980" y="460" width="80" height="40" as="geometry" />
        </mxCell>
        <mxCell id="vF5GCOSuYG-XhWZ7ihMb-113" style="edgeStyle=orthogonalEdgeStyle;rounded=0;orthogonalLoop=1;jettySize=auto;html=1;exitX=1;exitY=0.5;exitDx=0;exitDy=0;entryX=0;entryY=0.5;entryDx=0;entryDy=0;fillColor=#f8cecc;strokeColor=#b85450;" edge="1" parent="1" source="vF5GCOSuYG-XhWZ7ihMb-114" target="vF5GCOSuYG-XhWZ7ihMb-120">
          <mxGeometry relative="1" as="geometry" />
        </mxCell>
        <mxCell id="vF5GCOSuYG-XhWZ7ihMb-114" value="RegFIle" style="rounded=0;whiteSpace=wrap;html=1;fillColor=#dae8fc;strokeColor=#6c8ebf;" vertex="1" parent="1">
          <mxGeometry x="1180" y="370" width="80" height="40" as="geometry" />
        </mxCell>
        <mxCell id="vF5GCOSuYG-XhWZ7ihMb-115" style="edgeStyle=orthogonalEdgeStyle;rounded=0;orthogonalLoop=1;jettySize=auto;html=1;exitX=1;exitY=0.5;exitDx=0;exitDy=0;entryX=0;entryY=0.5;entryDx=0;entryDy=0;" edge="1" parent="1" source="vF5GCOSuYG-XhWZ7ihMb-116" target="vF5GCOSuYG-XhWZ7ihMb-122">
          <mxGeometry relative="1" as="geometry" />
        </mxCell>
        <mxCell id="vF5GCOSuYG-XhWZ7ihMb-116" value="CP0" style="rounded=0;whiteSpace=wrap;html=1;fillColor=#dae8fc;strokeColor=#6c8ebf;" vertex="1" parent="1">
          <mxGeometry x="1180" y="460" width="80" height="40" as="geometry" />
        </mxCell>
        <mxCell id="vF5GCOSuYG-XhWZ7ihMb-117" style="edgeStyle=orthogonalEdgeStyle;rounded=0;orthogonalLoop=1;jettySize=auto;html=1;exitX=1;exitY=0.5;exitDx=0;exitDy=0;entryX=0;entryY=0.5;entryDx=0;entryDy=0;" edge="1" parent="1" source="vF5GCOSuYG-XhWZ7ihMb-118" target="vF5GCOSuYG-XhWZ7ihMb-123">
          <mxGeometry relative="1" as="geometry" />
        </mxCell>
        <mxCell id="vF5GCOSuYG-XhWZ7ihMb-118" value="HILO" style="rounded=0;whiteSpace=wrap;html=1;" vertex="1" parent="1">
          <mxGeometry x="1180" y="550" width="80" height="40" as="geometry" />
        </mxCell>
        <mxCell id="vF5GCOSuYG-XhWZ7ihMb-119" style="edgeStyle=orthogonalEdgeStyle;rounded=0;orthogonalLoop=1;jettySize=auto;html=1;exitX=0.25;exitY=0;exitDx=0;exitDy=0;entryX=0.25;entryY=0;entryDx=0;entryDy=0;" edge="1" parent="1" target="vF5GCOSuYG-XhWZ7ihMb-120">
          <mxGeometry relative="1" as="geometry">
            <mxPoint x="1345" y="240" as="sourcePoint" />
          </mxGeometry>
        </mxCell>
        <mxCell id="vF5GCOSuYG-XhWZ7ihMb-120" value="RegRead&lt;br&gt;Proxy" style="rounded=0;whiteSpace=wrap;html=1;fillColor=#dae8fc;strokeColor=#6c8ebf;" vertex="1" parent="1">
          <mxGeometry x="1330" y="350" width="60" height="80" as="geometry" />
        </mxCell>
        <mxCell id="vF5GCOSuYG-XhWZ7ihMb-121" style="edgeStyle=orthogonalEdgeStyle;rounded=0;orthogonalLoop=1;jettySize=auto;html=1;exitX=0.25;exitY=0;exitDx=0;exitDy=0;entryX=0.25;entryY=0;entryDx=0;entryDy=0;" edge="1" parent="1" target="vF5GCOSuYG-XhWZ7ihMb-122">
          <mxGeometry relative="1" as="geometry">
            <mxPoint x="1405" y="240" as="sourcePoint" />
          </mxGeometry>
        </mxCell>
        <mxCell id="vF5GCOSuYG-XhWZ7ihMb-122" value="CP0Read&lt;br&gt;Proxy" style="rounded=0;whiteSpace=wrap;html=1;" vertex="1" parent="1">
          <mxGeometry x="1390" y="440" width="60" height="80" as="geometry" />
        </mxCell>
        <mxCell id="vF5GCOSuYG-XhWZ7ihMb-123" value="HILORead&lt;br&gt;Proxy" style="rounded=0;whiteSpace=wrap;html=1;" vertex="1" parent="1">
          <mxGeometry x="1450" y="530" width="60" height="80" as="geometry" />
        </mxCell>
        <mxCell id="vF5GCOSuYG-XhWZ7ihMb-124" style="edgeStyle=orthogonalEdgeStyle;rounded=0;orthogonalLoop=1;jettySize=auto;html=1;exitX=0.5;exitY=0;exitDx=0;exitDy=0;entryX=0.5;entryY=0;entryDx=0;entryDy=0;jumpStyle=arc;" edge="1" parent="1" target="vF5GCOSuYG-XhWZ7ihMb-120">
          <mxGeometry relative="1" as="geometry">
            <mxPoint x="1360" y="230" as="sourcePoint" />
          </mxGeometry>
        </mxCell>
        <mxCell id="vF5GCOSuYG-XhWZ7ihMb-125" style="edgeStyle=orthogonalEdgeStyle;rounded=0;orthogonalLoop=1;jettySize=auto;html=1;exitX=0.5;exitY=0;exitDx=0;exitDy=0;entryX=0.5;entryY=0;entryDx=0;entryDy=0;jumpStyle=arc;" edge="1" parent="1" target="vF5GCOSuYG-XhWZ7ihMb-122">
          <mxGeometry relative="1" as="geometry">
            <mxPoint x="1420" y="230" as="sourcePoint" />
          </mxGeometry>
        </mxCell>
        <mxCell id="vF5GCOSuYG-XhWZ7ihMb-126" style="edgeStyle=orthogonalEdgeStyle;rounded=0;orthogonalLoop=1;jettySize=auto;html=1;exitX=0.75;exitY=0;exitDx=0;exitDy=0;jumpStyle=arc;entryX=0.5;entryY=0;entryDx=0;entryDy=0;fillColor=#f8cecc;strokeColor=#b85450;" edge="1" parent="1" source="vF5GCOSuYG-XhWZ7ihMb-120" target="vF5GCOSuYG-XhWZ7ihMb-129">
          <mxGeometry relative="1" as="geometry">
            <Array as="points">
              <mxPoint x="1375" y="220" />
              <mxPoint x="580" y="220" />
            </Array>
            <mxPoint x="620" y="220" as="targetPoint" />
          </mxGeometry>
        </mxCell>
        <mxCell id="vF5GCOSuYG-XhWZ7ihMb-127" style="edgeStyle=orthogonalEdgeStyle;rounded=0;orthogonalLoop=1;jettySize=auto;html=1;entryX=0.75;entryY=0;entryDx=0;entryDy=0;jumpStyle=arc;" edge="1" parent="1" target="vF5GCOSuYG-XhWZ7ihMb-94">
          <mxGeometry relative="1" as="geometry">
            <Array as="points">
              <mxPoint x="730" y="210" />
            </Array>
            <mxPoint x="1020" y="210" as="sourcePoint" />
          </mxGeometry>
        </mxCell>
        <mxCell id="vF5GCOSuYG-XhWZ7ihMb-128" style="edgeStyle=orthogonalEdgeStyle;rounded=0;orthogonalLoop=1;jettySize=auto;html=1;entryX=0.5;entryY=0;entryDx=0;entryDy=0;jumpStyle=arc;" edge="1" parent="1" target="vF5GCOSuYG-XhWZ7ihMb-112">
          <mxGeometry relative="1" as="geometry">
            <mxPoint x="1020" y="210" as="sourcePoint" />
          </mxGeometry>
        </mxCell>
        <mxCell id="vF5GCOSuYG-XhWZ7ihMb-129" value="&lt;blockquote style=&quot;margin: 0 0 0 40px ; border: none ; padding: 0px&quot;&gt;&lt;/blockquote&gt;" style="rounded=0;whiteSpace=wrap;html=1;align=left;" vertex="1" parent="1">
          <mxGeometry x="500" y="290" width="160" height="360" as="geometry" />
        </mxCell>
        <mxCell id="vF5GCOSuYG-XhWZ7ihMb-130" value="OperandGen" style="rounded=0;whiteSpace=wrap;html=1;fillColor=#dae8fc;strokeColor=#6c8ebf;" vertex="1" parent="1">
          <mxGeometry x="540" y="300" width="80" height="40" as="geometry" />
        </mxCell>
        <mxCell id="vF5GCOSuYG-XhWZ7ihMb-131" value="CP0Gen" style="rounded=0;whiteSpace=wrap;html=1;fillColor=#dae8fc;strokeColor=#6c8ebf;" vertex="1" parent="1">
          <mxGeometry x="540" y="500" width="80" height="40" as="geometry" />
        </mxCell>
        <mxCell id="vF5GCOSuYG-XhWZ7ihMb-132" value="ExceptionGen" style="rounded=0;whiteSpace=wrap;html=1;" vertex="1" parent="1">
          <mxGeometry x="540" y="550" width="80" height="40" as="geometry" />
        </mxCell>
        <mxCell id="vF5GCOSuYG-XhWZ7ihMb-133" value="FunctGen" style="rounded=0;whiteSpace=wrap;html=1;" vertex="1" parent="1">
          <mxGeometry x="540" y="400" width="80" height="40" as="geometry" />
        </mxCell>
        <mxCell id="vF5GCOSuYG-XhWZ7ihMb-134" value="MemGen" style="rounded=0;whiteSpace=wrap;html=1;" vertex="1" parent="1">
          <mxGeometry x="540" y="450" width="80" height="40" as="geometry" />
        </mxCell>
        <mxCell id="vF5GCOSuYG-XhWZ7ihMb-135" value="BranchGen" style="rounded=0;whiteSpace=wrap;html=1;" vertex="1" parent="1">
          <mxGeometry x="540" y="600" width="80" height="40" as="geometry" />
        </mxCell>
        <mxCell id="vF5GCOSuYG-XhWZ7ihMb-136" value="RegGen" style="rounded=0;whiteSpace=wrap;html=1;fillColor=#dae8fc;strokeColor=#6c8ebf;" vertex="1" parent="1">
          <mxGeometry x="540" y="350" width="80" height="40" as="geometry" />
        </mxCell>
        <mxCell id="vF5GCOSuYG-XhWZ7ihMb-137" style="edgeStyle=orthogonalEdgeStyle;rounded=0;orthogonalLoop=1;jettySize=auto;html=1;exitX=0.5;exitY=1;exitDx=0;exitDy=0;" edge="1" parent="1" source="vF5GCOSuYG-XhWZ7ihMb-129" target="vF5GCOSuYG-XhWZ7ihMb-129">
          <mxGeometry x="500" y="290" as="geometry" />
        </mxCell>
        <mxCell id="vF5GCOSuYG-XhWZ7ihMb-138" value="" style="endArrow=none;html=1;entryX=0.75;entryY=0;entryDx=0;entryDy=0;rounded=0;jumpStyle=arc;" edge="1" parent="1" target="vF5GCOSuYG-XhWZ7ihMb-122">
          <mxGeometry width="50" height="50" relative="1" as="geometry">
            <mxPoint x="1020" y="210" as="sourcePoint" />
            <mxPoint x="1240" y="430" as="targetPoint" />
            <Array as="points">
              <mxPoint x="1435" y="210" />
            </Array>
          </mxGeometry>
        </mxCell>
        <mxCell id="vF5GCOSuYG-XhWZ7ihMb-139" style="edgeStyle=orthogonalEdgeStyle;rounded=0;orthogonalLoop=1;jettySize=auto;html=1;exitX=0.75;exitY=0;exitDx=0;exitDy=0;entryX=1;entryY=0.25;entryDx=0;entryDy=0;jumpStyle=arc;" edge="1" parent="1" source="vF5GCOSuYG-XhWZ7ihMb-112" target="vF5GCOSuYG-XhWZ7ihMb-116">
          <mxGeometry relative="1" as="geometry">
            <Array as="points">
              <mxPoint x="1040" y="270" />
              <mxPoint x="1290" y="270" />
              <mxPoint x="1290" y="470" />
            </Array>
          </mxGeometry>
        </mxCell>
        <mxCell id="vF5GCOSuYG-XhWZ7ihMb-140" style="edgeStyle=orthogonalEdgeStyle;rounded=0;jumpStyle=arc;orthogonalLoop=1;jettySize=auto;html=1;entryX=0.5;entryY=0;entryDx=0;entryDy=0;endFill=1;fillColor=#f8cecc;strokeColor=#b85450;" edge="1" parent="1" target="vF5GCOSuYG-XhWZ7ihMb-114">
          <mxGeometry relative="1" as="geometry">
            <mxPoint x="540" y="290" as="sourcePoint" />
            <Array as="points">
              <mxPoint x="540" y="290" />
              <mxPoint x="540" y="200" />
              <mxPoint x="1220" y="200" />
            </Array>
          </mxGeometry>
        </mxCell>
      </root>
    </mxGraphModel>
  </diagram>
</mxfile>
